# Blender v2.82 (sub 7) OBJ File: ''
# www.blender.org
o Plane_Plane.006
v -1.000000 -1.000000 -0.000000
v 1.000000 -1.000000 -0.000000
v -1.000000 1.000000 0.000000
v 1.000000 1.000000 0.000000
vt 0.000000 0.000000
vt 1.000000 0.000000
vt 1.000000 1.000000
vt 0.000000 1.000000
vn 0.0000 -0.0000 1.0000
s off
f 1/1/1 2/2/1 4/3/1 3/4/1
o Plane.001_Plane.007
v -0.707107 -1.000000 0.707107
v 0.707107 -1.000000 -0.707107
v -0.707107 1.000000 0.707107
v 0.707107 1.000000 -0.707107
vt 0.000000 0.000000
vt 1.000000 0.000000
vt 1.000000 1.000000
vt 0.000000 1.000000
vn 0.7071 -0.0000 0.7071
s off
f 5/5/2 6/6/2 8/7/2 7/8/2
o Plane.002_Plane.008
v 0.000000 -1.000000 1.000000
v -0.000000 -1.000000 -1.000000
v 0.000000 1.000000 1.000000
v 0.000000 1.000000 -1.000000
vt 0.000000 0.000000
vt 1.000000 0.000000
vt 1.000000 1.000000
vt 0.000000 1.000000
vn 1.0000 -0.0000 -0.0000
s off
f 9/9/3 10/10/3 12/11/3 11/12/3
o Plane.003_Plane.009
v 0.707107 -1.000000 0.707107
v -0.707107 -1.000000 -0.707107
v 0.707107 1.000000 0.707107
v -0.707107 1.000000 -0.707107
vt 0.000000 0.000000
vt 1.000000 0.000000
vt 1.000000 1.000000
vt 0.000000 1.000000
vn 0.7071 -0.0000 -0.7071
s off
f 13/13/4 14/14/4 16/15/4 15/16/4
